<svg xmlns="http://www.w3.org/2000/svg" viewBox="0 0 267.07 89.03" xmlns:v="https://vecta.io/nano"><path d="M254.4 46.43c.11-3.5 3.04-6.25 6.53-6.14a6.35 6.35 0 0 1 6.14 6.53l-.24 3.63-.49 3.66-.08.4h0c-2.3 9.99-7.94 18.69-15.69 24.85-7.61 6.05-17.23 9.67-27.68 9.67-2.68 0-5.39-.26-8.08-.75-2.74-.5-5.35-1.24-7.8-2.17-3.28-1.25-4.93-4.92-3.68-8.2s4.92-4.93 8.2-3.68c1.83.7 3.69 1.23 5.56 1.58 1.81.33 3.74.51 5.8.51 7.49 0 14.36-2.57 19.78-6.88 5.51-4.38 9.53-10.55 11.19-17.61.15-.91.26-1.78.34-2.6.1-.98.16-1.91.19-2.79h0zm-54.69-23.7a6.35 6.35 0 0 1-8.97.27 6.35 6.35 0 0 1-.27-8.97 44.61 44.61 0 0 1 14.78-10.37c5.45-2.36 11.42-3.67 17.64-3.67 3.49 0 6.9.41 10.2 1.18a44.97 44.97 0 0 1 9.66 3.48c.23.11.44.24.65.37.97.54 1.86 1.07 2.66 1.58 1.06.68 2.04 1.36 2.93 2.02 2.81 2.1 3.39 6.08 1.29 8.89s-6.08 3.39-8.89 1.29a38.67 38.67 0 0 0-2.19-1.52c-.69-.44-1.33-.83-1.94-1.17l-.18-.09a31.34 31.34 0 0 0-6.87-2.49c-2.33-.55-4.78-.84-7.32-.84-4.53 0-8.8.92-12.62 2.57-4 1.73-7.58 4.28-10.56 7.44h0z" fill="#095bba"/><path d="M204.46,42.35c-2.1-2.81-1.52-6.79,1.29-8.89s6.79-1.52,8.89,1.29l7.77,10.39,30.73-22.57c2.83-2.07,6.8-1.46,8.87,1.37s1.46,6.8-1.37,8.87l-35.52,26.09-.24.18c-2.81,2.1-6.79,1.52-8.89-1.29l-11.54-15.44Z" fill="#a8cf45"/><path d="M51.72 42.66v-.41c0-12.26-10.4-15.24-18.92-15.24-6.01 0-12.28.29-18.33.36-1.65.02-3.09.83-3.83 2.19-.19.47.37.81.55.81h1.17c.69 0 1.23.55 1.23 1.23v2.69a1.25 1.25 0 0 1-1.25 1.25H9.65a1.26 1.26 0 0 1-1.25-1.25v-1.22c-.05-.74-.52-1.05-1.27-1.08H5.54a2.27 2.27 0 0 0-2.26 2.26v4.08c-.05.59-.41.91-1.04.97h-1a1.26 1.26 0 0 0-1.25 1.25v2.69a1.25 1.25 0 0 0 1.25 1.25h2.69a1.25 1.25 0 0 0 1.25-1.25v-.84c.04-.66.43-.99 1.15-1.03h2.83c.53.05.93.22 1.03.66h0c.39 1.74 1.83 3.1 3.61 3.38.29.04.82-.05.9-.55a1.26 1.26 0 0 1 1.25-1.25h2.69a1.25 1.25 0 0 1 1.25 1.25v2.69a1.26 1.26 0 0 1-1.25 1.25h-2.69c-.42 0-.8-.21-1.02-.54-.17-.25-.37-.28-.62-.28h-.44c-.45 0-.83.37-.83.83v1.78c0 .45.37.83.83.83h1.54c.33 0 .52.1.5.44v.79c.02.81.4 1.15 1.02 1.19h1.1a1.25 1.25 0 0 1 1.25 1.25v2.69a1.25 1.25 0 0 1-1.25 1.25h-1.4c-.46 0-.71.21-.72.64v6.06c0 .47.19.79.68.88h2.08a1.25 1.25 0 0 1 1.25 1.25v2.69c.04.3.23.49.66.47h7.77a1.18 1.18 0 0 0 1.17-1.17V57.82c1.64.06 2.39.12 3.56.12 8.18 0 18.63-3.1 18.63-15.24h0zM31.41 46.4c-1.04-.22-1.68-.91-1.89-2.18v-3.45c.24-1.46 1.05-2.16 2.4-2.25h1.16c2.98 0 4.96 1.11 4.96 3.74v.41c0 2.51-1.99 3.74-4.96 3.74h-1.67zM21.4 49.21h2.69a1.25 1.25 0 0 1 1.25 1.25v2.69a1.25 1.25 0 0 1-1.25 1.25H21.4a1.25 1.25 0 0 1-1.25-1.25v-2.69a1.25 1.25 0 0 1 1.25-1.25zM.92 29.31h1.79a.83.83 0 0 1 .83.83v1.79a.83.83 0 0 1-.83.83H.92a.83.83 0 0 1-.83-.83v-1.79a.83.83 0 0 1 .83-.83zm5.02 22.13h1.17a.54.54 0 0 1 .54.54v1.17a.54.54 0 0 1-.54.54H5.94a.54.54 0 0 1-.54-.54v-1.17a.54.54 0 0 1 .54-.54zm2.93-3.55h1.79a.83.83 0 0 1 .83.83v1.79a.83.83 0 0 1-.83.83H8.87a.83.83 0 0 1-.83-.83v-1.79a.83.83 0 0 1 .83-.83zm3.6 6.41h2.26a1.05 1.05 0 0 1 1.05 1.05v2.26a1.05 1.05 0 0 1-1.05 1.05h-2.26a1.05 1.05 0 0 1-1.05-1.05v-2.26a1.05 1.05 0 0 1 1.05-1.05zm1.52-1.88h.52c.13 0 .24.11.24.24v.52c0 .13-.11.24-.24.24h-.52c-.13 0-.24-.11-.24-.24v-.52c0-.13.11-.24.24-.24zm-11.96-7.2H3.2a.54.54 0 0 1 .54.54v1.17a.54.54 0 0 1-.54.54H2.03a.54.54 0 0 1-.54-.54v-1.17a.54.54 0 0 1 .54-.54zm81.81 24.6v-20.5c0-10.69-6.66-13.37-15.24-13.37-3.56 0-9.05 1.05-10.8 1.69-.64.23-1.17.76-1.17 1.46v6.66c0 .64.18 1.34 1.17 1.23 1.58-.18 6.42-.35 10.22-.35 1.28 0 2.92.29 2.92 2.69v1.23h-1.4c-9.58 0-15.48 2.04-15.48 9.23v.93c0 8.23 5.49 10.86 9.58 10.86 3.68 0 5.84-1.11 8.23-2.98v1.23A1.18 1.18 0 0 0 73.04 71h9.64a1.18 1.18 0 0 0 1.17-1.17h0zm-12.5-7.83c-.76.23-1.87.53-2.86.53-1.23 0-2.22-.58-2.22-2.1v-.64c0-2.04 1.58-2.69 3.27-2.69h1.81V62zm51.57-19.1v-5.08c0-.7-.53-1.28-1.23-1.28h-17.75c-10.4 0-14.54 4.26-14.54 11.33v.76c0 3.74.99 5.61 2.86 7.48-1.52.99-3.1 2.98-3.1 5.43 0 2.75 1.4 4.26 2.1 4.61l.76.41c-1.99 1.52-3.21 3.68-3.21 5.78v1.29c0 6.07 5.31 9.46 15.54 9.46 11.1 0 17.35-2.57 17.35-9.87v-1.17c0-6.54-7.77-7.94-15.01-9.29l-6.37-1.17c-.88-.18-1.05-.64-1.05-.99 0-.47.23-.76.64-1.05 1.17.35 3.5.58 5.43.58 9.7 0 15.65-3.27 15.65-11.51v-.76c0-1.17-.35-2.51-.82-3.39l1.52-.29c.64-.12 1.23-.58 1.23-1.28h0zm-14.42 5.73c0 1.58-.64 2.75-3.15 2.75s-3.15-1.17-3.15-2.75v-.76c0-1.58.64-2.69 3.15-2.69s3.15 1.11 3.15 2.69v.76zm-.53 24.41c0 1.05-.53 2.04-3.62 2.04-2.45 0-3.68-1.28-3.68-2.39V71.4c0-.99.29-1.23.64-1.69l2.57.47c3.5.64 4.09 1.28 4.09 2.04v.82h0zm49.7-17.93v-2.69c0-11.27-6.07-16.47-16.06-16.47s-16.06 5.2-16.06 16.47v2.69c0 11.27 6.07 16.47 16.06 16.47s16.06-5.2 16.06-16.47zm-12.96 0c0 4.56-1.11 5.72-3.1 5.72s-3.1-1.17-3.1-5.72v-2.69c0-4.56 1.11-5.72 3.1-5.72s3.1 1.17 3.1 5.72v2.69zm50.17 14.72V37.81c0-.7-.64-1.28-1.34-1.28h-10.51c-.7 0-1.17.58-1.17 1.28V60c-1.05.58-2.16.88-3.21.88-1.64 0-2.98-.82-2.98-2.86V37.81a1.29 1.29 0 0 0-1.28-1.28h-10.51c-.7 0-1.23.58-1.23 1.28v20.21c0 7.3 2.1 13.55 10.69 13.55 4.96 0 7.13-1.34 9.58-3.39v1.64a1.18 1.18 0 0 0 1.17 1.17h9.64a1.18 1.18 0 0 0 1.17-1.17h0z" fill="#095bba"/></svg>